<svg width="165" height="172" viewBox="0 0 165 172" fill="none" xmlns="http://www.w3.org/2000/svg">
<path d="M54.0744 70.5351L50.0653 99.3364L63.2687 116.995L42.0628 113.85L30.4326 127.644L40.1229 147.811L63.6059 158.684L77.2534 153.357L84.0718 145.773L94.0934 160.652L149.409 135.304L143.456 108.827L156.582 99.8529L158.394 79.2876L153.119 62.3327L132.19 67.8758L129.186 74.8586L124.108 66.4255L147.672 30.0745L140.304 14.7408L136.888 11.0481L127.217 5.43748L109.498 17.234L105.682 44.3015L97.0582 40.4442L78.3024 44.5328L55.0398 66.9939L54.0744 70.5351Z" fill="#FE6813"/>
<path d="M142.736 107.326L143.456 108.826L151.316 103.409L142.736 107.326Z" fill="#C04500"/>
<path d="M137.547 137.515C137.75 137.254 132.646 121.338 130.069 113.413C135.563 125.872 138.121 134.299 138.714 136.955C138.24 137.25 137.344 137.777 137.547 137.515Z" fill="#C04500"/>
<path d="M121.38 145.284C121.411 143.299 118.842 134.878 117.553 130.915C121.685 137.464 123.937 142.208 124.547 143.762L121.38 145.284Z" fill="#C04500"/>
<path d="M107.213 152.091C106.557 151.75 101.645 141.5 99.2714 136.417C104.161 145.228 107.825 149.95 109.046 151.21C108.709 151.646 107.869 152.432 107.213 152.091Z" fill="#C04500"/>
<path d="M83.0978 144.599C89.9654 149.669 98.5872 153.637 102.04 154.987L93.3727 159.151L84.0719 145.772L77.2535 153.357L67.7663 157.095L75.7729 152.837L83.0978 144.599Z" fill="#C04500"/>
<path d="M40.6815 143.85L66.4394 157.322L63.7727 158.603L40.2031 147.977L30.2725 127.31C31.8742 130.644 38.1772 140.061 40.6815 143.85Z" fill="#C04500"/>
<path d="M50.0589 99.7494L51.2689 91.167L62.6952 116.655L50.0589 99.7494Z" fill="#C04500"/>
<path d="M151.141 130.368L92.6392 158.478L98.4854 170.645L101.652 169.123L124.596 198.514L165.43 178.893L155.153 143.416L156.987 142.535L151.141 130.368Z" fill="white"/>
<path d="M70.769 97.5941L71.7648 86.858L82.1048 81.4793L89.6006 83.4166L91.4384 76.9944L100.099 73.2434L112.924 78.1592L113.242 89.4949L104.609 96.7201L99.3409 95.1485L94.7108 105.579L84.4898 108.644L74.2127 104.761L70.769 97.5941Z" fill="white"/>
<path d="M112.156 158.537C111.303 158.127 109.665 153.922 108.953 151.871L145.12 134.492C144.35 136.162 142.065 140.515 139.09 144.57C135.371 149.639 131.378 151.148 128.031 153.577C124.685 156.005 124.557 153.605 119.211 156.994C113.864 160.384 113.223 159.05 112.156 158.537Z" fill="#E8E8EA"/>
<path d="M145.557 159.311C149.393 159.437 156.068 157.132 158.926 155.964L155.393 143.917L141.893 150.403L105.52 170.343L125.849 197.707L165.183 178.807L162.179 169.993L158.845 171.595L142.178 179.603C140.018 180.231 135.367 181.481 134.044 181.46C132.39 181.434 129.702 178.828 128.048 178.802C126.394 178.776 124.914 178.257 121.914 179.698C118.914 181.14 119.548 182.886 118.881 183.207C118.348 183.463 117.792 182.363 117.58 181.78C117.011 181.165 116.319 179.924 118.106 179.886C119.893 179.848 121.789 178.869 122.513 178.384C124.572 177.887 125.511 171.815 125.724 168.841C130.3 168.119 134.186 165.39 135.557 164.116C137.292 162.461 141.722 159.184 145.557 159.311Z" fill="#E8E8EA"/>
<path d="M103.246 167.743L95.12 158.517L93.9533 159.078L92.7866 159.639L97.9121 170.306L103.246 167.743Z" fill="#C5C5C5"/>
<path d="M139.396 151.61L101.729 169.709L124.349 198.428L127.016 197.146L107.53 170.255L139.396 151.61Z" fill="#C5C5C5"/>
<path d="M133.111 167.137L158.445 154.964L162.833 170.499L139.999 181.471C138.254 181.967 134.156 181.693 131.722 176.626C129.154 171.624 131.578 168.216 133.111 167.137Z" fill="#FDB601"/>
<path d="M120.01 58.7516L148.933 33.981L140.723 14.3333L127.836 2.88277L107.502 12.6532L105.904 51.169M120.01 58.7516L129.512 75.1113L132.523 67.7151L147.179 66.6222L155.268 83.4559L154.002 100.887L139.579 102.893L145.386 133.338L151.72 130.294L157.646 142.628L155.313 143.749M120.01 58.7516L105.904 51.169M155.313 143.749L165.263 178.973L124.262 198.674L101.478 169.617M155.313 143.749L101.478 169.617M101.478 169.617L98.3115 171.139L92.3852 158.805L97.3853 156.402L81.1753 140.599L76.4391 152.517L60.4387 160.205L42.2437 149.663L36.7656 124.6L45.123 113.814L63.1882 116.828L45.3614 93.3898L54.8597 67.9003L83.9773 46.5237L105.904 51.169M71.6043 86.5242L70.8553 97.3469L74.4591 104.847L84.8965 109.064L95.3707 105.672L99.7411 95.9814L105.01 97.5529L113.741 89.2542L112.856 77.1652L100.105 72.8295L90.7714 77.3143L89.1068 83.243L82.2713 81.3987L71.6043 86.5242Z" stroke="black" stroke-width="3"/>
<path d="M97.2188 156.483L145.887 133.098" stroke="black" stroke-width="3"/>
<path d="M86.5855 96.3542C86.0089 95.1542 87.1043 93.1644 87.7241 92.3195C88.9345 91.0814 89.564 91.0251 90.4774 90.7914C91.3909 90.5576 93.0381 90.997 94.0987 91.9235C94.7459 92.8434 96.0658 95.1634 96.1679 97.0838C96.2956 99.4843 94.802 99.7916 93.802 100.272C93.002 100.657 91.5394 100.402 90.908 100.227C90.1945 100.022 88.6045 99.4461 87.9535 98.7742C87.1396 97.9343 87.3063 97.8542 86.5855 96.3542Z" fill="black"/>
<path d="M96.532 89.728C96.3554 88.3358 96.6601 87.1964 97.6641 86.1068C99.3089 84.3215 102.651 84.531 103.872 85.7908C105.093 87.0506 105.66 87.8039 105.801 89.3775C105.941 90.9511 103.435 92.5658 103.435 92.5658C101.786 93.5228 99.5673 93.0564 98.5536 92.6545C97.9533 92.2591 96.7086 91.1203 96.532 89.728Z" fill="black"/>
<path d="M49.0774 130.583C51.4014 133.57 58.4662 140.474 68.1339 144.198C64.9325 142.659 56.6394 137.782 49.0774 130.583Z" fill="#C04500"/>
<path d="M145.136 75.6051C145.359 77.2076 145.116 81.113 142.359 83.9147C143.092 82.8787 144.674 79.7662 145.136 75.6051Z" fill="#C04500"/>
<path d="M127.383 21.1537C126.736 25.4994 124.289 35.9756 119.677 43.1151C121.307 39.3914 125.13 29.7859 127.383 21.1537Z" fill="#C04500"/>
<path d="M62.468 67.9373C62.4709 69.5087 63.1533 73.8036 65.8597 78.4115C65.0344 76.5515 63.2005 71.8525 62.468 67.9373Z" fill="#C04500"/>
<path d="M87.5422 56.5045C89.3604 56.5882 93.8245 58.8198 97.1353 67.0762C96.1224 63.118 92.7856 55.4621 87.5422 56.5045Z" fill="#C04500"/>
<path d="M92.4165 120.017C94.2261 120.652 100.386 123.367 106.739 119.084C98.4968 121.143 95.3828 120.725 92.4165 120.017Z" fill="black"/>
<path d="M100.087 126.588C96.1719 127.321 93.3417 122.512 92.4161 120.017C98.8664 122.169 104.652 120.292 106.739 119.084C106.153 121.28 104.002 125.856 100.087 126.588Z" fill="#7B1C1C" stroke="black" stroke-width="0.6"/>
<path d="M94.832 124.19C95.9172 125.31 98.9368 127.182 102.334 125.714C100.968 126.712 97.5541 127.806 94.832 124.19Z" fill="black"/>
<path d="M145.449 163.475L148.228 162.14L149.352 164.479L147.051 165.585C146.257 165.966 146.498 166.711 146.718 167.036C147.165 168.101 148.387 167.62 148.943 167.247L150.033 169.515L149.948 174.023L146.791 175.54L147.121 170.478C145.766 170.613 144.966 169.897 144.719 169.675L144.716 169.673C144.471 169.454 143.885 168.56 143.757 168.232C143.628 167.904 142.96 166.719 143.372 165.422C143.701 164.384 144.894 163.692 145.449 163.475Z" fill="white"/>
<path fill-rule="evenodd" clip-rule="evenodd" d="M148.238 162.135L153.606 159.556C154.538 159.029 156.688 158.532 157.839 160.762C159.277 163.549 159.091 164.203 158.351 165.146C158.137 165.382 157.409 165.994 156.209 166.547C155.009 167.101 152.54 168.301 151.455 168.832L148.238 162.135ZM152.016 169.999L154.474 168.818L155.657 171.28L153.199 172.461L152.016 169.999ZM151.798 163.297L152.797 165.376L154.72 164.452C155.481 164.086 155.898 163.839 155.485 162.921C154.999 161.839 154.231 162.159 153.788 162.343C153.776 162.348 153.765 162.352 153.754 162.357L151.798 163.297Z" fill="#2A2A2A"/>
<path d="M155.765 169.225L155.43 169.386L155.843 170.247L155.672 170.329L155.259 169.468L154.93 169.626L154.864 169.488L155.698 169.087L155.765 169.225Z" fill="#2A2A2A"/>
<path d="M156.562 169.593L156.435 168.733L156.617 168.645L156.77 169.991C156.788 170.187 156.729 170.317 156.593 170.382L156.56 170.395L156.49 170.414L156.424 170.275L156.472 170.257C156.529 170.229 156.569 170.196 156.59 170.157C156.611 170.118 156.617 170.062 156.608 169.99L156.597 169.87L155.766 169.054L155.953 168.964L156.562 169.593Z" fill="#2A2A2A"/>
<path d="M157.124 169.46L157.148 169.358C157.173 169.24 157.148 169.093 157.075 168.916L156.899 168.51L157.542 168.201L157.955 169.06L158.083 168.998L158.291 169.431L158.121 169.513L157.98 169.22L157.283 169.555L157.424 169.848L157.253 169.93L157.046 169.497L157.124 169.46ZM157.326 169.363L157.784 169.142L157.447 168.441L157.14 168.588L157.244 168.831C157.329 169.035 157.356 169.212 157.326 169.363Z" fill="#2A2A2A"/>
<path d="M158.506 167.738L158.677 167.656L159.156 168.654L158.986 168.736L158.636 168.008L158.525 168.958L158.354 169.04L157.875 168.041L158.045 167.959L158.396 168.688L158.506 167.738Z" fill="#2A2A2A"/>
<path d="M159.714 167.157L160.194 168.156L160.022 168.238L159.836 167.85L159.578 167.974L159.529 168.475L159.345 168.564L159.397 168.029C159.321 168.036 159.255 168.024 159.197 167.992C159.14 167.959 159.095 167.91 159.064 167.845C159.02 167.753 159.019 167.664 159.061 167.576C159.102 167.487 159.18 167.415 159.294 167.359L159.714 167.157ZM159.236 167.764C159.26 167.813 159.295 167.844 159.343 167.858C159.39 167.872 159.442 167.866 159.497 167.84L159.768 167.71L159.609 167.378L159.363 167.496C159.3 167.527 159.257 167.567 159.235 167.616C159.212 167.665 159.212 167.714 159.236 167.764Z" fill="#2A2A2A"/>
<path d="M154.635 170.679C154.696 170.649 154.741 170.605 154.768 170.546C154.796 170.488 154.799 170.429 154.778 170.372L154.939 170.294C154.963 170.353 154.97 170.417 154.958 170.486C154.947 170.555 154.918 170.619 154.872 170.68C154.827 170.739 154.77 170.785 154.702 170.818C154.566 170.883 154.436 170.89 154.312 170.838C154.188 170.786 154.089 170.681 154.013 170.523L153.999 170.495C153.953 170.397 153.929 170.302 153.928 170.209C153.927 170.117 153.95 170.033 153.997 169.96C154.044 169.885 154.113 169.827 154.204 169.783C154.316 169.729 154.425 169.718 154.531 169.749C154.637 169.781 154.719 169.849 154.775 169.953L154.614 170.031C154.578 169.969 154.528 169.928 154.464 169.908C154.4 169.887 154.336 169.892 154.271 169.923C154.184 169.965 154.132 170.029 154.114 170.114C154.097 170.199 154.116 170.301 154.173 170.419L154.189 170.451C154.244 170.566 154.31 170.644 154.387 170.683C154.465 170.722 154.547 170.721 154.635 170.679Z" fill="white"/>
</svg>
