<svg width="240" height="22" viewBox="0 0 240 22" fill="none" xmlns="http://www.w3.org/2000/svg">
<path fill-rule="evenodd" clip-rule="evenodd" d="M149.155 0.0854131C146.221 0.461606 143.889 1.50451 142.155 3.21678C141.314 4.04701 140.858 4.6845 140.267 5.85851C139.533 7.31548 139.175 8.74159 139.055 10.6838C138.871 13.655 139.784 16.3187 141.678 18.3363C144.333 21.1633 149.067 22.4056 153.633 21.4737C154.577 21.2811 156.409 20.6367 156.52 20.4584C156.577 20.3653 157.197 18.0354 157.197 17.9114C157.197 17.8738 157.111 17.8158 157.006 17.7825C156.871 17.74 156.743 17.7888 156.572 17.9472C155.885 18.5843 154.685 19.2423 153.571 19.5917C151.281 20.3109 148.897 19.9704 147.169 18.6777C145.392 17.3473 144.365 15.1452 144.125 12.1514C143.932 9.7327 144.325 7.5217 145.292 5.59211C145.803 4.57424 146.241 3.98054 146.96 3.33195C147.924 2.46321 149.059 1.96856 150.444 1.81461C152.381 1.59929 154.077 2.2345 155.576 3.73627C156.03 4.19113 156.452 4.53837 156.552 4.53837C156.697 4.53837 156.754 4.41628 156.879 3.83278C156.963 3.44475 157.109 2.78596 157.205 2.36889C157.301 1.95181 157.38 1.57343 157.38 1.528C157.38 1.22983 154.811 0.35991 153.247 0.128568C152.222 -0.0230202 150.169 -0.0445976 149.155 0.0854131ZM92.2517 0.615197C92.1759 0.795009 90.4042 5.0596 88.3146 10.092C86.225 15.1245 84.3358 19.6721 84.1164 20.1979C83.8971 20.7237 83.7174 21.18 83.7171 21.212C83.7169 21.2439 84.3467 21.2708 85.1168 21.2717L86.517 21.2733L87.3024 18.9375C87.7344 17.6528 88.2187 16.2432 88.3785 15.8051L88.6692 15.0084H92.2485H95.8278L95.9883 15.4409C96.4079 16.5713 97.269 19.0904 97.6053 20.1712L97.9795 21.3736L98.9135 21.3284C99.4274 21.3036 99.9801 21.2671 100.142 21.2475C100.304 21.2278 101.043 21.2477 101.785 21.2914C102.526 21.3353 103.148 21.3564 103.166 21.3382C103.193 21.311 97.5879 7.33697 95.3316 1.80705L94.7186 0.304829L93.5539 0.296544L92.3894 0.288259L92.2517 0.615197ZM185.863 0.390411C185.842 0.443489 183.903 5.11331 181.555 10.7678C179.207 16.4222 177.267 21.0984 177.243 21.1593C177.211 21.2432 177.544 21.2704 178.618 21.2717L180.036 21.2734L180.49 19.8935C180.74 19.1345 181.222 17.7249 181.562 16.761L182.178 15.0084H185.761H189.344L189.667 15.8506C189.844 16.3137 190.333 17.7505 190.753 19.0432L191.516 21.3937L192.06 21.331C192.771 21.249 195.482 21.2503 196.197 21.3331L196.757 21.3977L194.335 15.4035C193.004 12.1067 191.09 7.35827 190.082 4.85156L188.25 0.293813H187.075C186.333 0.293813 185.887 0.32932 185.863 0.390411ZM0 10.8204V21.2904H10.4646H20.9292V10.8204V0.350351H10.4646H0V10.8204ZM71.0559 2.62281C69.9272 5.64647 68.1727 9.99955 66.4126 14.1435C64.8405 17.8452 63.4403 21.1047 63.3824 21.1981C63.3638 21.2281 63.9822 21.2539 64.7566 21.2557L66.1645 21.2588L66.6356 19.8407C67.5537 17.0774 69.2146 12.6757 71.1386 7.90699C71.7577 6.37245 71.827 6.24289 71.9176 6.45029C72.5556 7.91045 76.0127 17.3627 76.7399 19.6347L77.2734 21.3021L78.4615 21.2298C79.9374 21.1399 80.027 21.1398 81.4487 21.224L82.6082 21.2927L81.4657 18.4919C79.1979 12.9331 76.6678 6.49454 75.2533 2.68326L74.4465 0.509496L73.758 0.561938C73.3792 0.590707 72.7963 0.583969 72.4626 0.546915L71.856 0.479543L71.0559 2.62281ZM31.4395 10.8659V21.1994L35.3922 21.199C39.5539 21.1987 40.2126 21.151 41.6299 20.7476C43.2351 20.2909 44.6101 19.2412 45.2124 18.0129C45.7448 16.927 45.9181 16.1171 45.9141 14.7353C45.9098 13.3047 45.7523 12.712 45.1225 11.7578C44.0073 10.0681 42.0091 9.46548 37.4943 9.45738L36.0091 9.45474V6.07209V2.68936L39.0023 2.74863C41.7293 2.80262 43.172 2.88001 44.4818 3.04261L44.9575 3.10161L44.8931 2.75027C44.8109 2.30233 44.8101 1.31614 44.8914 0.873853L44.9542 0.532439H38.1968H31.4395V10.8659ZM49.901 10.8659V21.1994H55.6816H61.4623V19.9166V18.6337L61.1424 18.6867C60.4999 18.7929 57.4009 19.0055 55.9101 19.0456L54.3793 19.0866V15.2266V11.3667L56.8698 11.3664C58.2395 11.3663 59.8041 11.4124 60.3466 11.4688C60.8891 11.5253 61.3468 11.556 61.3638 11.5373C61.3807 11.5186 61.3538 11.2267 61.3041 10.8887C61.2444 10.4833 61.2444 10.065 61.3041 9.65959C61.3538 9.32154 61.3892 9.03912 61.3827 9.03193C61.3762 9.02483 60.7951 9.07463 60.0914 9.14282C59.3877 9.21102 57.8146 9.2681 56.5956 9.26974L54.3793 9.27265V5.98069V2.68881L56.5956 2.74826C58.5977 2.80207 59.8777 2.88547 61.051 3.03879L61.4623 3.0925V1.81243V0.532439H55.6816H49.901V10.8659ZM106.291 10.9635V21.3946L106.816 21.3229C107.432 21.239 109.665 21.2458 110.371 21.3337L110.861 21.3946V16.8465V12.2983L111.066 12.2434C111.179 12.2133 111.623 12.188 112.052 12.1873C114.264 12.1838 116.46 11.6763 117.762 10.8684C119.528 9.77175 120.282 8.23266 120.283 5.72194C120.283 4.53354 120.141 3.87175 119.716 3.07748C119.01 1.75853 117.498 0.87522 115.524 0.629037C115.078 0.573409 112.954 0.532439 110.52 0.532439H106.291V10.9635ZM120.183 0.583605C120.183 0.682661 121.988 3.68001 123.414 5.94955C125.572 9.38382 127.903 13.301 128.589 14.647L129.217 15.8789L127.862 18.6074C127.117 20.1081 126.514 21.343 126.521 21.3514C126.529 21.36 126.802 21.3353 127.129 21.2967C127.456 21.258 128.011 21.2578 128.363 21.2961C128.714 21.3344 129.006 21.359 129.011 21.3508C129.016 21.3426 129.215 20.8648 129.455 20.289C130.568 17.614 135.399 7.84417 138.046 2.9146C138.727 1.6459 139.284 0.599903 139.284 0.589979C139.284 0.580146 138.626 0.569403 137.822 0.566216C137.018 0.56303 136.359 0.594804 136.359 0.636775C136.359 0.919648 132.228 9.61042 131.68 10.4792L131.465 10.8209L129.959 8.21126C129.131 6.77596 127.99 4.79903 127.423 3.81812C126.856 2.83722 126.219 1.69534 126.007 1.28055L125.621 0.526431L124.524 0.597717C123.143 0.687486 122.403 0.687487 121.165 0.597809C120.625 0.558751 120.183 0.552286 120.183 0.583605ZM161.219 10.8659V21.1994L165.171 21.1989C168.147 21.1985 169.339 21.1659 169.992 21.0672C173.715 20.5049 175.569 18.5448 175.724 15.0084C175.788 13.567 175.593 12.7503 174.96 11.8023C173.798 10.0602 171.826 9.45811 167.273 9.45556L165.88 9.45474V6.072V2.68927L168.827 2.74644C171.496 2.79825 173.332 2.89694 174.334 3.04243L174.699 3.09551V1.81406V0.532531L167.959 0.532439H161.219V10.8659ZM199.787 10.9601V21.3986L200.267 21.3284C200.851 21.2428 203.251 21.2471 203.892 21.3349L204.356 21.3986V16.3057V11.2128L205.605 11.1532C207.193 11.0773 209.558 11.0775 211.919 11.1537L213.77 11.2134V16.3061V21.3986L214.25 21.3327C214.859 21.2489 217.256 21.2501 217.872 21.3345L218.34 21.3986V10.9601V0.521422L217.449 0.595259C216.332 0.687669 215.687 0.688215 214.615 0.597445L213.77 0.525883V4.61894V8.71191L213.473 8.7781C213.087 8.86405 205.042 8.86359 204.653 8.77765L204.356 8.71191V4.61894V0.525883L203.511 0.597445C202.439 0.688215 201.794 0.687669 200.678 0.595259L199.787 0.521422V10.9601ZM223.641 10.9617V21.3986L224.12 21.3327C224.73 21.2489 227.127 21.2501 227.742 21.3344L228.209 21.3983L228.232 16.5727L228.256 11.747L231.546 16.5649L234.836 21.3828L235.375 21.3261C236.119 21.2479 238.735 21.2523 239.429 21.333C239.997 21.399 240 21.398 240 21.1688C240 21.0097 238.747 19.2097 235.953 15.3558C233.728 12.2855 231.811 9.63883 231.695 9.47441L231.483 9.17542L231.926 8.65902C233.133 7.25075 235.876 4.28654 237.575 2.55516C238.621 1.4894 239.456 0.597262 239.431 0.572498C239.406 0.547826 239.02 0.56913 238.573 0.619842C238.011 0.683663 237.512 0.682024 236.954 0.614652C236.51 0.561027 236.136 0.5308 236.124 0.547552C235.393 1.53256 231.214 6.57812 229.216 8.88726L228.256 9.99618L228.232 5.25889L228.209 0.521604L227.318 0.595259C226.352 0.675287 225.344 0.670734 224.303 0.581602L223.641 0.524883V10.9617ZM19.1013 3.85445V5.53776L15.5211 5.56152L11.9411 5.58537L12.4518 5.96949C13.2377 6.56054 14.5744 7.86275 15.2298 8.67595C17.6293 11.6531 18.9733 15.1649 19.1167 18.8323L19.147 19.6061L17.5407 19.6309L15.9343 19.6558L15.8279 18.4928C15.5087 15.0025 14.1628 12.0988 11.7441 9.68208C9.29758 7.23773 6.205 5.84294 2.63698 5.57454L1.82788 5.51372V3.84252V2.17123H10.4646H19.1013V3.85445ZM113.743 2.38664C114.26 2.62654 114.825 3.21377 115.137 3.83715C115.778 5.11559 115.745 7.30783 115.064 8.63698C114.452 9.83148 113.113 10.5346 111.432 10.5441L110.861 10.5473V6.35925V2.17123L112.072 2.17214C113.149 2.17287 113.333 2.19654 113.743 2.38664ZM93.7248 9.50026C94.4143 11.3029 95.014 12.87 95.0575 12.9827L95.1363 13.1875H92.3124H89.4883L90.9208 9.64384C91.7087 7.69486 92.3799 6.12772 92.4122 6.16141C92.4445 6.1951 93.0352 7.69759 93.7248 9.50026ZM187.294 9.63683C187.975 11.4145 188.56 12.9406 188.594 13.0282C188.653 13.1778 188.486 13.1875 185.859 13.1875C184.32 13.1875 183.062 13.1586 183.062 13.1232C183.062 13.0543 185.79 6.27995 185.875 6.13883C185.902 6.09267 185.954 6.13364 185.99 6.22987C186.026 6.32611 186.613 7.8592 187.294 9.63683ZM3.70145 7.64187C6.08372 7.96781 8.52548 9.21211 10.3689 11.0396C12.5174 13.1695 13.7608 15.86 13.9545 18.7984L14.0108 19.6517H12.3655H10.7201L10.6626 18.9461C10.445 16.2762 8.97533 13.756 6.79211 12.3089C5.50282 11.4543 4.09362 10.9537 2.65042 10.8374L1.87357 10.7749L1.84862 9.11059L1.82376 7.44631L2.44268 7.5003C2.78312 7.53007 3.34958 7.59371 3.70145 7.64187ZM39.3551 11.4661C40.0216 11.8146 40.5756 12.4579 40.9073 13.2687C41.202 13.9886 41.3102 15.4505 41.1321 16.3047C40.8354 17.7289 39.8144 18.8833 38.4918 19.2903C38.163 19.3915 37.4756 19.4989 36.9532 19.5307L36.0091 19.5883V15.3864V11.1846H37.4129C38.8049 11.1846 38.8211 11.1869 39.3551 11.4661ZM169.057 11.3865C171.278 12.4223 171.747 16.2461 169.905 18.3093C169.21 19.0886 167.861 19.5606 166.33 19.5606H165.88V15.3726V11.1846H167.252C168.477 11.1846 168.67 11.2061 169.057 11.3865ZM3.81953 12.9276C6.10199 13.624 7.85959 15.411 8.55445 17.7418C8.69109 18.2003 8.85779 19.5377 8.78705 19.6081C8.76302 19.6321 8.07884 19.6517 7.26672 19.6517H5.79007L5.68798 19.1048C5.53517 18.2864 5.08689 17.4605 4.48488 16.8885C3.91769 16.3496 3.07421 15.8774 2.50766 15.7817C1.76865 15.6568 1.82788 15.8011 1.82788 14.1248V12.6161L2.51717 12.6784C2.89627 12.7126 3.48238 12.8247 3.81953 12.9276Z" fill="#D0D0D6"/>
</svg>
