<svg width="122" height="36" viewBox="0 0 122 36" fill="none" xmlns="http://www.w3.org/2000/svg">
<path d="M19.811 16.9997L19.5404 16.5792L19.811 16.9997ZM55.2968 6.55899L55.1992 7.04938L55.2968 6.55899ZM72.4045 14.5166L72.8217 14.241L72.4045 14.5166ZM74.3711 30.3953L73.9834 30.0796L74.3711 30.3953ZM65.808 34.4788L65.902 33.9877L65.808 34.4788ZM59.305 26.7192L58.8165 26.8259L59.305 26.7192ZM63.4728 15.6228L63.0793 15.3143L63.0964 15.2925L63.1157 15.2728L63.4728 15.6228ZM81.0996 3.36337L80.9531 2.88531L81.0996 3.36337ZM108.136 6.0608L108.4 5.63578L108.136 6.0608ZM120.329 19.338C120.265 19.6065 119.995 19.7723 119.726 19.7081L115.35 18.6624C115.081 18.5982 114.915 18.3285 114.979 18.0599C115.044 17.7913 115.313 17.6256 115.582 17.6898L119.472 18.6193L120.402 14.7288C120.466 14.4602 120.736 14.2945 121.004 14.3586C121.273 14.4228 121.439 14.6925 121.374 14.9611L120.329 19.338ZM0.936714 35.4594C0.544796 35.1489 0.544865 35.1489 0.544974 35.1487C0.545062 35.1486 0.54521 35.1484 0.545386 35.1482C0.545737 35.1478 0.546245 35.1471 0.546906 35.1463C0.548229 35.1446 0.55017 35.1422 0.552722 35.139C0.557828 35.1325 0.565382 35.123 0.57534 35.1106C0.595256 35.0856 0.624787 35.0486 0.663576 35.0003C0.741152 34.9037 0.855762 34.7617 1.00454 34.5792C1.30208 34.2141 1.73635 33.687 2.28439 33.0373C3.38031 31.7381 4.93207 29.9475 6.75602 27.9817C10.3957 24.0589 15.1496 19.4047 19.5404 16.5792L20.0815 17.4201C15.8022 20.1739 11.119 24.7496 7.48908 28.6619C5.67823 30.6136 4.13707 32.3919 3.04877 33.6821C2.50471 34.3271 2.07404 34.8498 1.77967 35.211C1.6325 35.3915 1.51941 35.5317 1.44328 35.6265C1.40521 35.6739 1.37639 35.71 1.35716 35.7341C1.34755 35.7461 1.34033 35.7552 1.33556 35.7612C1.33318 35.7642 1.3314 35.7664 1.33025 35.7679C1.32967 35.7686 1.32924 35.7691 1.32897 35.7695C1.32884 35.7696 1.32875 35.7698 1.32869 35.7698C1.32864 35.7699 1.32863 35.7699 0.936714 35.4594ZM19.5404 16.5792C31.6865 8.76306 41.0119 3.20688 55.3943 6.0686L55.1992 7.04938C41.2462 4.27308 32.2306 9.60209 20.0815 17.4201L19.5404 16.5792ZM55.3943 6.0686C62.5314 7.48869 68.6191 7.87883 72.8217 14.241L71.9873 14.7922C68.0675 8.85812 62.5156 8.50516 55.1992 7.04938L55.3943 6.0686ZM72.8217 14.241C74.5544 16.864 76.075 19.6868 76.6488 22.4941C77.2274 25.3251 76.8432 28.1516 74.7588 30.7111L73.9834 30.0796C75.8447 27.7941 76.1991 25.2881 75.669 22.6943C75.1341 20.077 73.6986 17.3829 71.9873 14.7922L72.8217 14.241ZM74.7588 30.7111C72.382 33.6296 69.6297 35.7187 65.7141 34.9698L65.902 33.9877C69.2641 34.6307 71.6812 32.9065 73.9834 30.0796L74.7588 30.7111ZM65.7141 34.9698C61.5306 34.1697 59.6746 30.7548 58.8165 26.8259L59.7935 26.6125C60.6226 30.409 62.3188 33.3023 65.902 33.9877L65.7141 34.9698ZM58.8165 26.8259C58.5459 25.5866 58.7014 24.2396 59.0575 22.9449C59.4147 21.6461 59.9834 20.3654 60.5763 19.2418C61.1701 18.1164 61.7942 17.1369 62.2694 16.4392C62.5073 16.09 62.7084 15.8104 62.8507 15.6174C62.9219 15.5209 62.9784 15.446 63.0174 15.3948C63.0369 15.3692 63.052 15.3495 63.0625 15.336C63.0677 15.3292 63.0717 15.324 63.0745 15.3204C63.076 15.3186 63.0771 15.3171 63.0779 15.3161C63.0783 15.3156 63.0786 15.3152 63.0788 15.3149C63.079 15.3147 63.0791 15.3146 63.0791 15.3145C63.0792 15.3144 63.0793 15.3143 63.4728 15.6228C63.8662 15.9314 63.8663 15.9313 63.8663 15.9313C63.8663 15.9313 63.8663 15.9313 63.8662 15.9313C63.8662 15.9314 63.866 15.9316 63.8658 15.9319C63.8653 15.9325 63.8646 15.9334 63.8635 15.9348C63.8614 15.9375 63.8581 15.9418 63.8536 15.9476C63.8446 15.9593 63.8309 15.9771 63.8129 16.0007C63.7768 16.048 63.7235 16.1187 63.6556 16.2108C63.5198 16.395 63.326 16.6644 63.0959 17.0021C62.6354 17.6783 62.0324 18.625 61.4607 19.7084C60.8882 20.7935 60.3533 22.0043 60.0217 23.2101C59.6889 24.4199 59.5703 25.5906 59.7935 26.6125L58.8165 26.8259ZM63.4728 15.6228C63.1157 15.2728 63.1158 15.2727 63.1159 15.2726C63.116 15.2725 63.1162 15.2723 63.1164 15.2721C63.1167 15.2718 63.1172 15.2713 63.1179 15.2706C63.1192 15.2693 63.1211 15.2673 63.1235 15.2648C63.1284 15.2599 63.1357 15.2525 63.1452 15.2429C63.1642 15.2237 63.1922 15.1955 63.229 15.1587C63.3025 15.0851 63.4109 14.9774 63.5514 14.8397C63.8324 14.5643 64.2421 14.1689 64.7585 13.6871C65.791 12.7239 67.2517 11.4137 68.9651 10.0258C72.3771 7.26203 76.8468 4.14363 80.9531 2.88531L81.2461 3.84142C77.3355 5.03978 72.9917 8.0511 69.5946 10.8029C67.9034 12.1727 66.4606 13.4668 65.4407 14.4183C64.9309 14.894 64.5271 15.2836 64.2513 15.5539C64.1134 15.6891 64.0075 15.7943 63.9363 15.8655C63.9008 15.9011 63.8739 15.9282 63.856 15.9463C63.8471 15.9553 63.8404 15.9621 63.836 15.9665C63.8338 15.9688 63.8322 15.9704 63.8312 15.9715C63.8307 15.972 63.8303 15.9724 63.8301 15.9726C63.8299 15.9727 63.8299 15.9728 63.8298 15.9728C63.8298 15.9728 63.8298 15.9728 63.4728 15.6228ZM80.9531 2.88531C86.0619 1.31981 90.6332 0.580682 95.0816 0.952103C99.5354 1.32397 103.833 2.80629 108.4 5.63578L107.873 6.48581C103.419 3.72625 99.2716 2.30543 94.9984 1.94864C90.7198 1.59139 86.2826 2.29807 81.2461 3.84142L80.9531 2.88531ZM108.4 5.63578C111.404 7.4975 114.376 10.8494 116.577 13.694C117.684 15.1233 118.605 16.438 119.25 17.3955C119.573 17.8744 119.827 18.2644 120 18.5351C120.087 18.6705 120.154 18.7761 120.199 18.8482C120.222 18.8843 120.239 18.9119 120.25 18.9307C120.256 18.9401 120.261 18.9473 120.264 18.9522C120.265 18.9547 120.266 18.9565 120.267 18.9579C120.268 18.9585 120.268 18.959 120.268 18.9594C120.268 18.9596 120.268 18.9597 120.268 18.9598C120.268 18.96 120.269 18.9601 119.843 19.2218C119.416 19.4835 119.416 19.4835 119.416 19.4835C119.416 19.4834 119.416 19.4834 119.416 19.4833C119.416 19.4831 119.416 19.4827 119.416 19.4822C119.415 19.4812 119.414 19.4796 119.413 19.4775C119.41 19.4732 119.406 19.4667 119.401 19.4579C119.39 19.4404 119.373 19.414 119.352 19.3793C119.308 19.3099 119.243 19.2071 119.158 19.0746C118.989 18.8096 118.739 18.4262 118.421 17.9543C117.785 17.0102 116.876 15.714 115.787 14.306C113.596 11.4759 110.715 8.24728 107.873 6.48581L108.4 5.63578Z" fill="#D0D0D6"/>
</svg>
