<svg width="165" height="172" fill="none" xmlns="http://www.w3.org/2000/svg"><path d="M54.074 70.535l-4.009 28.801 13.204 17.659-21.206-3.145-11.63 13.794 9.69 20.167 23.483 10.873 13.647-5.327 6.819-7.584 10.021 14.879 55.316-25.348-5.953-26.477 13.126-8.974 1.812-20.565-5.275-16.955-20.929 5.543-3.004 6.983-5.078-8.433 23.564-36.352-7.368-15.333-3.416-3.693-9.671-5.61-17.719 11.796-3.816 27.067-8.624-3.857-18.756 4.089-23.262 22.46-.966 3.542z" fill="#FE6813"/><path d="M142.736 107.326l.72 1.5 7.86-5.417-8.58 3.917zm-5.189 30.189c.203-.261-4.901-16.177-7.478-24.102 5.494 12.459 8.052 20.886 8.645 23.542-.474.295-1.37.822-1.167.56zm-16.167 7.769c.031-1.985-2.538-10.406-3.827-14.369 4.132 6.549 6.384 11.293 6.994 12.847l-3.167 1.522zm-14.167 6.807c-.656-.341-5.568-10.591-7.942-15.674 4.89 8.811 8.554 13.533 9.775 14.793-.337.436-1.177 1.222-1.833.881zm-24.115-7.492c6.867 5.07 15.49 9.038 18.942 10.388l-8.667 4.164-9.301-13.379-6.819 7.585-9.487 3.738 8.007-4.258 7.325-8.238zm-42.417-.749l25.758 13.472-2.666 1.281-23.57-10.626-9.93-20.667c1.601 3.334 7.904 12.751 10.409 16.54zm9.378-44.1l1.21-8.583 11.426 25.488L50.06 99.749z" fill="#C04500"/><path d="M151.141 130.368l-58.502 28.11 5.846 12.167 3.167-1.522 22.944 29.391 40.834-19.621-10.277-35.477 1.834-.881-5.846-12.167zM70.769 97.594l.996-10.736 10.34-5.379 7.496 1.938 1.837-6.423 8.661-3.75 12.825 4.915.318 11.336-8.633 7.225-5.268-1.572-4.63 10.431-10.221 3.065-10.277-3.883-3.444-7.167z" fill="#fff"/><path d="M112.156 158.537c-.853-.41-2.491-4.615-3.203-6.666l36.167-17.379c-.77 1.67-3.055 6.023-6.03 10.078-3.719 5.069-7.712 6.578-11.059 9.007-3.346 2.428-3.474.028-8.82 3.417-5.347 3.39-5.988 2.056-7.055 1.543zm33.401.774c3.836.126 10.511-2.179 13.369-3.347l-3.533-12.047-13.5 6.486-36.373 19.94 20.329 27.364 39.334-18.9-3.004-8.814-3.334 1.602-16.667 8.008c-2.16.628-6.811 1.878-8.134 1.857-1.654-.026-4.342-2.632-5.996-2.658-1.654-.026-3.134-.545-6.134.896-3 1.442-2.366 3.188-3.033 3.509-.533.256-1.089-.844-1.301-1.427-.569-.615-1.261-1.856.526-1.894 1.787-.038 3.683-1.017 4.407-1.502 2.059-.497 2.998-6.569 3.211-9.543 4.576-.722 8.462-3.451 9.833-4.725 1.735-1.655 6.165-4.932 10-4.805z" fill="#E8E8EA"/><path d="M103.246 167.743l-8.126-9.226-1.167.561-1.166.561 5.125 10.667 5.334-2.563zm36.15-16.133l-37.667 18.099 22.62 28.719 2.667-1.282-19.486-26.891 31.866-18.645z" fill="#C5C5C5"/><path d="M133.111 167.137l25.334-12.173 4.388 15.535-22.834 10.972c-1.745.496-5.843.222-8.277-4.845-2.568-5.002-.144-8.41 1.389-9.489z" fill="#FDB601"/><path d="M120.01 58.752l28.923-24.771-8.21-19.648-12.887-11.45-20.334 9.77-1.598 38.516m14.106 7.583l9.502 16.36 3.011-7.397 14.656-1.093 8.089 16.834-1.266 17.431-14.423 2.006 5.807 30.445 6.334-3.044 5.926 12.334-2.333 1.121M120.01 58.752l-14.106-7.583m49.409 92.58l9.95 35.224-41.001 19.701-22.784-29.057m53.835-25.868l-53.835 25.868m0 0l-3.166 1.522-5.927-12.334 5-2.403-16.21-15.803-4.736 11.918-16 7.688-18.195-10.542-5.478-25.063 8.357-10.786 18.065 3.014L45.361 93.39 54.86 67.9l29.117-21.376 21.927 4.645m-34.3 35.355l-.749 10.823 3.604 7.5 10.438 4.217 10.474-3.392 4.37-9.69 5.269 1.57 8.731-8.298-.885-12.089-12.751-4.336-9.334 4.485-1.664 5.929-6.836-1.844-10.667 5.125zm25.615 69.959l48.668-23.385" stroke="#000" stroke-width="3"/><path d="M86.585 96.354c-.576-1.2.52-3.19 1.14-4.034 1.21-1.239 1.839-1.295 2.752-1.529.914-.233 2.561.206 3.622 1.133.647.92 1.967 3.24 2.069 5.16.128 2.4-1.366 2.708-2.366 3.188-.8.385-2.263.13-2.894-.045-.713-.205-2.303-.78-2.954-1.453-.814-.84-.648-.92-1.368-2.42zm9.947-6.626c-.177-1.392.128-2.532 1.132-3.621 1.645-1.785 4.987-1.576 6.208-.316s1.788 2.013 1.929 3.587c.14 1.573-2.366 3.188-2.366 3.188-1.649.957-3.868.49-4.881.088-.6-.395-1.845-1.534-2.022-2.926z" fill="#000"/><path d="M49.077 130.583c2.324 2.987 9.39 9.891 19.057 13.615-3.201-1.539-11.495-6.416-19.057-13.615zm96.059-54.978c.223 1.603-.02 5.508-2.777 8.31.733-1.036 2.315-4.149 2.777-8.31zm-17.753-54.451c-.647 4.345-3.094 14.822-7.706 21.961 1.63-3.724 5.453-13.33 7.706-21.961zM62.468 67.937c.003 1.572.685 5.867 3.392 10.475-.826-1.86-2.66-6.56-3.392-10.475zm25.074-11.432c1.818.083 6.282 2.315 9.593 10.571-1.013-3.958-4.35-11.614-9.593-10.571z" fill="#C04500"/><path d="M92.416 120.017c1.81.635 7.97 3.35 14.323-.933-8.242 2.059-11.356 1.641-14.323.933z" fill="#000"/><path d="M100.087 126.588c-3.915.733-6.745-4.076-7.67-6.571 6.45 2.152 12.235.275 14.322-.933-.586 2.196-2.737 6.772-6.652 7.504z" fill="#7B1C1C" stroke="#000" stroke-width=".6"/><path d="M94.832 124.19c1.085 1.12 4.105 2.992 7.502 1.524-1.366.998-4.78 2.092-7.502-1.524z" fill="#000"/><path d="M145.449 163.475l2.779-1.335 1.124 2.339-2.301 1.106c-.794.381-.553 1.126-.333 1.451.447 1.065 1.669.584 2.225.211l1.09 2.268-.085 4.508-3.157 1.517.33-5.062a3.01 3.01 0 01-2.402-.803l-.003-.002c-.245-.219-.831-1.113-.959-1.441-.129-.328-.797-1.513-.385-2.81.329-1.038 1.522-1.73 2.077-1.947z" fill="#fff"/><path fill-rule="evenodd" clip-rule="evenodd" d="M148.238 162.135l5.368-2.579c.932-.527 3.082-1.024 4.233 1.206 1.438 2.787 1.252 3.441.512 4.384-.214.236-.942.848-2.142 1.401-1.2.554-3.669 1.754-4.754 2.285l-3.217-6.697zm3.778 7.864l2.458-1.181 1.183 2.462-2.458 1.181-1.183-2.462zm-.218-6.702l.999 2.079 1.923-.924c.761-.366 1.178-.613.765-1.531-.486-1.082-1.254-.762-1.697-.578l-.034.014-1.956.94z" fill="#2A2A2A"/><path d="M155.765 169.225l-.335.161.413.861-.171.082-.413-.861-.329.158-.066-.138.834-.401.067.138zm.797.368l-.127-.86.182-.088.153 1.346c.018.196-.041.326-.177.391l-.033.013-.07.019-.066-.139.048-.018a.255.255 0 00.118-.1.283.283 0 00.018-.167l-.011-.12-.831-.816.187-.09.609.629zm.562-.133l.024-.102c.025-.118 0-.265-.073-.442l-.176-.406.643-.309.413.859.128-.062.208.433-.17.082-.141-.293-.697.335.141.293-.171.082-.207-.433.078-.037zm.202-.097l.458-.221-.337-.701-.307.147.104.243c.085.204.112.381.082.532zm1.18-1.625l.171-.082.479.998-.17.082-.35-.728-.111.95-.171.082-.479-.999.17-.082.351.729.11-.95zm1.208-.581l.48.999-.172.082-.186-.388-.258.124-.049.501-.184.089.052-.535a.339.339 0 01-.2-.037.329.329 0 01-.133-.147.297.297 0 01-.003-.269.469.469 0 01.233-.217l.42-.202zm-.478.607c.024.049.059.08.107.094a.213.213 0 00.154-.018l.271-.13-.159-.332-.246.118a.256.256 0 00-.128.12.164.164 0 00.001.148z" fill="#2A2A2A"/><path d="M154.635 170.679a.273.273 0 00.133-.133.216.216 0 00.01-.174l.161-.078a.344.344 0 01.019.192.467.467 0 01-.256.332.459.459 0 01-.39.02c-.124-.052-.223-.157-.299-.315l-.014-.028a.688.688 0 01-.071-.286.443.443 0 01.069-.249.483.483 0 01.207-.177.445.445 0 01.327-.034c.106.032.188.1.244.204l-.161.078a.259.259 0 00-.343-.108.268.268 0 00-.157.191.491.491 0 00.059.305l.016.032a.477.477 0 00.198.232c.078.039.16.038.248-.004z" fill="#fff"/></svg>