<svg width="240" height="22" fill="none" xmlns="http://www.w3.org/2000/svg"><path fill-rule="evenodd" clip-rule="evenodd" d="M149.155.085c-2.934.377-5.266 1.42-7 3.132-.841.83-1.297 1.467-1.888 2.642-.734 1.456-1.092 2.883-1.212 4.825-.184 2.971.729 5.635 2.623 7.652 2.655 2.827 7.389 4.07 11.955 3.138.944-.193 2.776-.837 2.887-1.016.057-.093.677-2.423.677-2.547 0-.037-.086-.095-.191-.129-.135-.042-.263.007-.434.165-.687.637-1.887 1.295-3.001 1.645-2.29.719-4.674.378-6.402-.914-1.777-1.33-2.804-3.533-3.044-6.527-.193-2.418.2-4.63 1.167-6.559.511-1.018.949-1.611 1.668-2.26.964-.869 2.099-1.363 3.484-1.517 1.937-.216 3.633.42 5.132 1.921.454.455.876.802.976.802.145 0 .202-.122.327-.705.084-.388.23-1.047.326-1.464a12 12 0 00.175-.841c0-.298-2.569-1.168-4.133-1.4-1.025-.151-3.078-.173-4.092-.043zm-56.903.53c-.076.18-1.848 4.445-3.937 9.477l-4.199 10.106c-.219.526-.399.982-.399 1.014 0 .032.63.059 1.4.06l1.4.001.785-2.335c.432-1.285.917-2.695 1.076-3.133l.291-.797h7.159l.16.433c.42 1.13 1.281 3.65 1.617 4.73l.374 1.203.934-.046a26.873 26.873 0 001.229-.08c.162-.02.901 0 1.643.043.741.044 1.363.065 1.381.047.027-.027-5.578-14.001-7.834-19.53L94.719.304 93.554.297 92.389.288l-.137.327zM185.863.39l-4.308 10.378c-2.348 5.654-4.288 10.33-4.312 10.391-.032.084.301.111 1.375.113l1.418.001.454-1.38c.25-.759.732-2.168 1.072-3.132l.616-1.753h7.166l.323.843c.177.463.666 1.9 1.086 3.192l.763 2.35.544-.062c.711-.082 3.422-.08 4.137.002l.56.065-2.422-5.995a10188.36 10188.36 0 01-4.253-10.551L188.25.294h-1.175c-.742 0-1.188.035-1.212.096zM0 10.82v10.47h20.929V.35H0v10.47zm71.056-8.197c-1.129 3.023-2.883 7.377-4.643 11.52-1.572 3.702-2.973 6.962-3.03 7.055-.02.03.6.056 1.374.058l1.407.003.472-1.418c.918-2.764 2.579-7.165 4.503-11.934.619-1.535.688-1.664.779-1.457.638 1.46 4.095 10.913 4.822 13.185l.533 1.667 1.189-.072c1.475-.09 1.565-.09 2.987-.006l1.16.069-1.143-2.801c-2.268-5.559-4.798-11.997-6.213-15.809L74.447.51l-.689.053a8.44 8.44 0 01-1.295-.015L71.856.48l-.8 2.143zm-39.617 8.243v10.333h3.953c4.162 0 4.82-.048 6.238-.451 1.605-.457 2.98-1.507 3.582-2.735.533-1.086.706-1.896.702-3.278-.004-1.43-.162-2.023-.791-2.977-1.116-1.69-3.114-2.293-7.629-2.3l-1.485-.003V2.689l2.993.06c2.727.054 4.17.131 5.48.294l.476.059-.065-.352c-.082-.448-.083-1.434-.002-1.876l.063-.342H31.44v10.334zm18.462 0v10.333h11.561v-2.565l-.32.053c-.642.106-3.741.319-5.232.359l-1.53.04v-7.72h2.49c1.37 0 2.934.046 3.477.103.542.056 1 .087 1.017.068.017-.018-.01-.31-.06-.648a4.24 4.24 0 010-1.23c.05-.337.085-.62.079-.627-.007-.007-.588.043-1.292.11-.703.069-2.276.126-3.495.128l-2.217.003V2.689l2.217.06c2.002.053 3.282.136 4.455.29l.411.053V.532H49.901v10.334zm56.39.098v10.43l.525-.071c.616-.084 2.849-.077 3.555.01l.49.062v-9.097l.205-.055c.113-.03.557-.055.986-.056 2.212-.003 4.408-.51 5.71-1.319 1.766-1.096 2.52-2.635 2.521-5.146 0-1.188-.142-1.85-.567-2.645-.706-1.318-2.218-2.202-4.192-2.448-.446-.056-2.57-.097-5.004-.097h-4.229v10.431zM120.183.583c0 .099 1.805 3.096 3.231 5.366 2.158 3.434 4.489 7.351 5.175 8.697l.628 1.232-1.355 2.728c-.745 1.501-1.348 2.736-1.341 2.744.008.009.281-.016.608-.054a6.604 6.604 0 011.234 0c.351.037.643.062.648.054.005-.008.204-.486.444-1.062 1.113-2.675 5.944-12.445 8.591-17.374A205.578 205.578 0 00139.284.59c0-.01-.658-.02-1.462-.024-.804-.003-1.463.029-1.463.07 0 .284-4.131 8.974-4.679 9.843l-.215.342-1.506-2.61-2.536-4.393a79.995 79.995 0 01-1.416-2.537l-.386-.755-1.097.072c-1.381.09-2.121.09-3.359 0-.54-.04-.982-.046-.982-.014zm41.036 10.282v10.333h3.952c2.976 0 4.168-.033 4.821-.132 3.723-.562 5.577-2.522 5.732-6.059.064-1.441-.131-2.258-.764-3.206-1.162-1.742-3.134-2.344-7.687-2.346l-1.393-.001V2.689l2.947.057c2.669.052 4.505.15 5.507.296l.365.054V.533h-13.48v10.333zm38.568.094V21.4l.48-.07c.584-.086 2.984-.082 3.625.006l.464.064V11.213l1.249-.06c1.588-.076 3.953-.075 6.314 0l1.851.06V21.4l.48-.066c.609-.084 3.006-.083 3.622.002l.468.064V.52l-.891.074c-1.117.093-1.762.093-2.834.002l-.845-.071v8.186l-.297.066c-.386.086-8.431.086-8.82 0l-.297-.066V.526l-.845.071c-1.072.091-1.717.09-2.833-.002l-.891-.074v10.44zm23.854.002v10.437l.479-.066c.61-.084 3.007-.083 3.622.001l.467.064.023-4.825.024-4.826 3.29 4.818 3.29 4.818.539-.057c.744-.078 3.36-.074 4.054.007.568.066.571.065.571-.164 0-.16-1.253-1.96-4.047-5.813-2.225-3.07-4.142-5.717-4.258-5.882l-.212-.299.443-.516c1.207-1.408 3.95-4.372 5.649-6.104 1.046-1.066 1.881-1.958 1.856-1.983-.025-.024-.411-.003-.858.048a6.684 6.684 0 01-1.619-.005c-.444-.054-.818-.084-.83-.067-.731.985-4.91 6.03-6.908 8.34l-.96 1.108-.024-4.737-.023-4.737-.891.073a17.99 17.99 0 01-3.015-.013l-.662-.057v10.437zM19.101 3.854v1.684l-3.58.024-3.58.023.51.384c.787.592 2.123 1.894 2.779 2.707 2.4 2.977 3.743 6.489 3.887 10.156l.03.774-1.606.025-1.607.025-.106-1.163c-.32-3.49-1.665-6.394-4.084-8.81-2.446-2.445-5.539-3.84-9.107-4.108l-.81-.061V2.17h17.274v1.683zm94.642-1.467c.517.24 1.082.827 1.394 1.45.641 1.279.608 3.47-.073 4.8-.612 1.194-1.951 1.898-3.632 1.907l-.571.003V2.171l1.211.001c1.077 0 1.261.025 1.671.215zM93.725 9.5l1.333 3.483.078.204h-5.648l1.433-3.543c.788-1.95 1.459-3.516 1.491-3.483.032.034.623 1.537 1.313 3.34zm93.569.137l1.3 3.391c.059.15-.108.16-2.735.16-1.539 0-2.797-.03-2.797-.065 0-.069 2.728-6.843 2.813-6.984.027-.046.079-.005.115.09.036.097.623 1.63 1.304 3.408zM3.701 7.642c2.383.326 4.824 1.57 6.668 3.398 2.148 2.13 3.392 4.82 3.585 7.758l.057.854H10.72l-.057-.706c-.218-2.67-1.688-5.19-3.87-6.637-1.29-.855-2.7-1.355-4.143-1.472l-.776-.062-.025-1.664-.025-1.665.619.054c.34.03.907.094 1.258.142zm35.654 3.824c.667.349 1.22.992 1.552 1.803.295.72.403 2.181.225 3.036-.297 1.424-1.318 2.578-2.64 2.985-.329.102-1.016.209-1.539.24l-.944.058v-8.403h1.404c1.392 0 1.408.002 1.942.281zm129.702-.08c2.221 1.036 2.69 4.86.848 6.923-.695.78-2.044 1.252-3.575 1.252h-.45v-8.376h1.372c1.225 0 1.418.021 1.805.201zM3.82 12.928c2.282.696 4.04 2.483 4.734 4.814.137.458.304 1.796.233 1.866-.024.024-.708.044-1.52.044H5.79l-.102-.547a4.234 4.234 0 00-1.203-2.216c-.567-.54-1.41-1.012-1.977-1.107-.74-.125-.68.02-.68-1.657v-1.509l.69.062c.378.035.964.147 1.302.25z" fill="#D0D0D6"/></svg>