<svg width="122" height="36" fill="none" xmlns="http://www.w3.org/2000/svg"><path d="M19.811 17l-.27-.42.27.42zM55.297 6.559l-.098.49.098-.49zm17.108 7.958l.417-.276-.418.276zm1.966 15.878l-.388-.315.388.315zm-8.563 4.084l.094-.491-.094.49zm-6.503-7.76l-.489.107.489-.107zm4.168-11.096l-.394-.309.017-.021.02-.02.357.35zM81.1 3.363l-.147-.478.147.478zm27.036 2.698l.264-.425-.264.425zm12.193 13.277a.5.5 0 01-.603.37l-4.376-1.046a.5.5 0 11.232-.972l3.89.93.93-3.891a.5.5 0 11.972.232l-1.045 4.377zM.937 35.459l-.392-.31.002-.003.006-.007.022-.028a35.497 35.497 0 01.43-.532 144.724 144.724 0 015.751-6.598c3.64-3.922 8.394-8.576 12.784-11.402l.541.841c-4.279 2.754-8.962 7.33-12.592 11.242a143.71 143.71 0 00-5.71 6.549 72.168 72.168 0 00-.422.523l-.021.027-.006.007-.001.002-.392-.31zM19.54 16.58C31.686 8.763 41.012 3.207 55.394 6.07l-.195.98C41.246 4.273 32.231 9.602 20.082 17.42l-.542-.84zM55.394 6.07c7.137 1.42 13.225 1.81 17.428 8.172l-.835.551C68.067 8.858 62.516 8.505 55.2 7.05l.195-.98zm17.428 8.172c1.732 2.623 3.253 5.446 3.827 8.253.578 2.831.194 5.658-1.89 8.217l-.776-.631c1.862-2.286 2.216-4.792 1.686-7.386-.535-2.617-1.97-5.311-3.682-7.902l.835-.551zm1.937 16.47c-2.377 2.919-5.13 5.008-9.045 4.259l.188-.982c3.362.643 5.78-1.081 8.081-3.908l.776.631zm-9.045 4.259c-4.183-.8-6.04-4.215-6.898-8.144l.977-.213c.83 3.796 2.526 6.69 6.109 7.375l-.188.982zm-6.898-8.144c-.27-1.24-.115-2.586.241-3.881.358-1.299.926-2.58 1.52-3.703a29.606 29.606 0 012.498-3.922l.003-.004a.018.018 0 00.001-.002l.394.309.393.308-.002.004c-.003.002-.006.007-.01.013-.01.011-.023.03-.041.053a26.355 26.355 0 00-.717 1.001 28.631 28.631 0 00-1.635 2.706c-.573 1.086-1.108 2.296-1.44 3.502-.332 1.21-.45 2.38-.227 3.402l-.977.214zm4.657-11.203l-.357-.35.002-.002.005-.006.022-.022a22.816 22.816 0 01.406-.403c.281-.276.691-.671 1.207-1.153a80.934 80.934 0 014.207-3.661c3.412-2.764 7.882-5.882 11.988-7.14l.293.955c-3.91 1.199-8.254 4.21-11.651 6.962a79.853 79.853 0 00-5.344 4.75 45.35 45.35 0 00-.395.393l-.02.02-.005.006h-.001l-.357-.35zm17.48-12.738C86.062 1.32 90.633.581 95.082.952c4.453.372 8.751 1.854 13.318 4.684l-.527.85c-4.454-2.76-8.601-4.18-12.875-4.537-4.278-.358-8.715.35-13.752 1.892l-.293-.956zm27.447 2.75c3.004 1.862 5.976 5.214 8.177 8.059a69.87 69.87 0 013.423 4.84 30.025 30.025 0 01.25.396l.014.021a.027.027 0 00.003.006l.001.001c0 .001.001.001-.425.263l-.427.261a.267.267 0 01-.015-.024l-.049-.08-.194-.304a69.716 69.716 0 00-3.371-4.769c-2.191-2.83-5.072-6.059-7.914-7.82l.527-.85z" fill="#D0D0D6"/></svg>